<svg version="1.1" xmlns="http://www.w3.org/2000/svg" xmlns:xlink="http://www.w3.org/1999/xlink" width="207.81339" height="198.55907" viewBox="0,0,207.81339,198.55907"><g transform="translate(-136.10426,-81.56649)"><g data-paper-data="{&quot;isPaintingLayer&quot;:true}" fill-rule="nonzero" stroke-linejoin="miter" stroke-miterlimit="10" stroke-dasharray="" stroke-dashoffset="0" style="mix-blend-mode: normal"><path d="M339.15657,162.87761l-36.37259,109.41624c-0.56275,1.68901 -2.15245,2.83171 -3.9327,2.83171h-117.69587c-1.78842,0 -3.36963,-1.13442 -3.9327,-2.83171l-36.37259,-109.41624c-0.55458,-1.67235 0.01666,-3.51903 1.4158,-4.59519l95.21688,-72.73745c1.48179,-1.13442 3.53536,-1.13442 5.02564,0l95.21644,72.73745c1.39957,1.07628 1.97082,2.91435 1.4317,4.59519z" fill="#9913b8" stroke="#750b8c" stroke-width="10" stroke-linecap="butt"/><path d="M283.55516,216.11598c0,0 -9.34,7.96068 -20.68926,13.0669c-10.18118,4.58071 -15.11078,5.44454 -22.32262,5.44454c-8.78716,0 -11.94685,-2.72227 -21.23371,-5.989c-8.84607,-3.11166 -22.86708,-12.52245 -22.86708,-12.52245" fill="none" stroke="#000000" stroke-width="10" stroke-linecap="round"/><path d="M198.89253,169.29292c0,-6.01382 4.87526,-10.88908 10.88908,-10.88908c6.01382,0 10.88908,4.87526 10.88908,10.88908c0,6.01382 -4.87526,10.88908 -10.88908,10.88908c-6.01382,0 -10.88908,-4.87526 -10.88908,-10.88908z" fill="#000000" stroke="none" stroke-width="0.5" stroke-linecap="butt"/><path d="M258.23804,164.93728c0,-6.01382 4.87526,-10.88908 10.88908,-10.88908c6.01382,0 10.88908,4.87526 10.88908,10.88908c0,6.01382 -4.87526,10.88908 -10.88908,10.88908c-6.01382,0 -10.88908,-4.87526 -10.88908,-10.88908z" fill="#000000" stroke="none" stroke-width="0.5" stroke-linecap="butt"/><path d="M210.32607,165.75397c0,-1.50346 1.21882,-2.72227 2.72227,-2.72227c1.50346,0 2.72227,1.21882 2.72227,2.72227c0,1.50346 -1.21882,2.72227 -2.72227,2.72227c-1.50346,0 -2.72227,-1.21882 -2.72227,-2.72227z" fill="#ffffff" stroke="none" stroke-width="0.5" stroke-linecap="butt"/><path d="M270.21603,160.30942c0,-1.50346 1.21882,-2.72227 2.72227,-2.72227c1.50346,0 2.72227,1.21882 2.72227,2.72227c0,1.50346 -1.21882,2.72227 -2.72227,2.72227c-1.50346,0 -2.72227,-1.21882 -2.72227,-2.72227z" fill="#ffffff" stroke="none" stroke-width="0.5" stroke-linecap="butt"/></g></g></svg>