<svg version="1.1" xmlns="http://www.w3.org/2000/svg" xmlns:xlink="http://www.w3.org/1999/xlink" width="264.8773" height="264.8773" viewBox="0,0,264.8773,264.8773"><g transform="translate(-107.56135,-47.56135)"><g data-paper-data="{&quot;isPaintingLayer&quot;:true}" fill-rule="nonzero" stroke-linejoin="miter" stroke-miterlimit="10" stroke-dasharray="" stroke-dashoffset="0" style="mix-blend-mode: normal"><path d="M112.56135,179.99999c0,-70.38242 57.05623,-127.43864 127.43865,-127.43864c70.38242,0 127.43865,57.05623 127.43865,127.43865c0,70.38242 -57.05622,127.43865 -127.43864,127.43865c-70.38242,0 -127.43864,-57.05623 -127.43864,-127.43864z" fill="#ba70cc" stroke="#9f47b3" stroke-width="10" stroke-linecap="butt"/><path d="M305.48352,120.61713c8.8451,1.37336 16.57843,4.57787 22.52966,9.31924c2.14179,1.684 5.39535,5.01931 6.94855,7.11205c4.79041,6.37632 8.01127,14.64919 9.28654,23.82128c0.35969,2.56688 0.40874,9.23749 0.0981,11.77167c-1.32431,10.6926 -5.98393,20.30613 -13.45567,27.77787c-7.42269,7.40634 -16.49668,11.96786 -27.12388,13.60282c-1.97829,0.31064 -3.05736,0.37604 -6.53982,0.37604c-2.55053,0 -4.77407,-0.0654 -5.72234,-0.19619c-12.81804,-1.76575 -22.98745,-7.063 -36.39407,-19.01451c-2.91022,-2.59958 -9.77702,-9.22114 -12.58914,-12.14771c-1.25891,-1.30796 -2.38703,-2.38703 -2.51783,-2.38703c-0.11445,0 -2.58323,2.33798 -5.46075,5.19915c-8.25652,8.17477 -12.09866,11.62452 -17.34686,15.53206c-4.16913,3.12276 -7.52079,5.23185 -11.49373,7.21015c-10.13671,5.05201 -21.63044,7.0303 -31.99605,5.4771c-16.66018,-2.48513 -29.85426,-13.32487 -35.3804,-29.08583c-1.99464,-5.65694 -2.87752,-11.00324 -2.87752,-17.41226c0,-4.03834 0.1635,-5.85313 0.83383,-9.23749c2.95927,-15.13967 13.55377,-28.07216 28.02311,-34.21958c8.63256,-3.6623 18.13164,-4.72502 27.28738,-3.04101c14.04425,2.58323 26.17561,10.64355 44.87948,29.78886c1.6186,1.6513 3.07371,3.07371 3.25356,3.17181c0.27794,0.14715 0.83383,-0.32699 4.59422,-4.07104c5.2809,-5.2482 7.50444,-7.35729 10.74165,-10.20211c13.29217,-11.72262 25.26004,-17.83735 37.88188,-19.35785c2.82847,-0.34334 9.72798,-0.21254 12.5401,0.21254zM184.0882,139.53354c-2.40338,-0.04905 -3.76039,0 -4.79041,0.1635c-9.15574,1.48781 -16.57843,6.85046 -20.69852,14.95983c-3.5969,7.063 -4.08738,14.64919 -1.47146,22.64411c3.07371,9.36829 10.13671,15.66286 19.78294,17.60845c1.6186,0.32699 2.35433,0.37604 5.46075,0.37604c3.98929,0 5.93488,-0.26159 9.23749,-1.20987c6.9976,-2.02734 14.43664,-6.55616 22.48062,-13.71726c2.53418,-2.27259 12.99788,-12.62184 12.99788,-12.88344c0,-0.1635 -12.00056,-11.88611 -14.38759,-14.0606c-1.89655,-1.7167 -4.80676,-4.10373 -6.75236,-5.54249c-5.46075,-4.05469 -11.01959,-6.70331 -16.51303,-7.86413c-1.66765,-0.34334 -2.53418,-0.42509 -5.3463,-0.47414zM293.3031,139.69704c-9.46638,1.32431 -18.27878,6.27822 -29.42917,16.57843c-3.30261,3.04101 -10.97054,10.87244 -10.92149,11.13404c0.04905,0.24524 8.14207,8.20747 12.19676,12.00056c6.45807,6.04933 11.60817,9.82607 16.95447,12.442c5.08471,2.50148 9.15574,3.51515 14.2241,3.51515c2.86117,0 5.00296,-0.26159 7.42269,-0.89922c10.03862,-2.68132 17.90274,-10.95419 20.09358,-21.17265c2.15814,-10.03862 -1.27526,-21.13995 -8.45271,-27.41818c-3.85849,-3.38435 -8.40366,-5.42805 -13.74996,-6.18013c-2.09274,-0.29429 -6.21282,-0.29429 -8.33826,0z" fill="#9913b8" stroke="#750b8c" stroke-width="5" stroke-linecap="butt"/><path d="M164.39254,167.6914c0,-10.7082 8.68088,-19.38908 19.38908,-19.38908c10.7082,0 19.38908,8.68088 19.38908,19.38908c0,10.7082 -8.68088,19.38908 -19.38908,19.38908c-10.7082,0 -19.38908,-8.68088 -19.38908,-19.38908z" fill="#000000" stroke="none" stroke-width="0.5" stroke-linecap="butt"/><path d="M184.7511,161.38995c0,-2.67706 2.17023,-4.84727 4.84727,-4.84727c2.67706,0 4.84727,2.17023 4.84727,4.84727c0,2.67706 -2.17023,4.84727 -4.84727,4.84727c-2.67706,0 -4.84727,-2.17023 -4.84727,-4.84727z" fill="#ffffff" stroke="none" stroke-width="0.5" stroke-linecap="butt"/><path d="M275.89255,167.1914c0,-10.7082 8.68088,-19.38908 19.38908,-19.38908c10.7082,0 19.38908,8.68088 19.38908,19.38908c0,10.7082 -8.68088,19.38908 -19.38908,19.38908c-10.7082,0 -19.38908,-8.68088 -19.38908,-19.38908z" fill="#000000" stroke="none" stroke-width="0.5" stroke-linecap="butt"/><path d="M296.25109,160.88995c0,-2.67706 2.17023,-4.84727 4.84727,-4.84727c2.67706,0 4.84727,2.17023 4.84727,4.84727c0,2.67706 -2.17023,4.84727 -4.84727,4.84727c-2.67706,0 -4.84727,-2.17023 -4.84727,-4.84727z" fill="#ffffff" stroke="none" stroke-width="0.5" stroke-linecap="butt"/><path d="M270.15286,245.91875c0,0 -6.48983,5.16317 -14.37578,8.47499c-7.07432,2.97098 -10.49962,3.53124 -15.51072,3.53124c-6.1057,0 -8.30118,-1.76562 -14.75409,-3.88437c-6.14662,-2.01817 -15.88902,-8.12187 -15.88902,-8.12187" fill="none" stroke="#000000" stroke-width="10" stroke-linecap="round"/></g></g></svg>