<svg version="1.1" xmlns="http://www.w3.org/2000/svg" xmlns:xlink="http://www.w3.org/1999/xlink" width="118.45885" height="99.36334" viewBox="0,0,118.45885,99.36334"><g transform="translate(-180.77058,-130.31832)"><g data-paper-data="{&quot;isPaintingLayer&quot;:true}" fill-rule="nonzero" stroke="#455666" stroke-width="10" stroke-linejoin="miter" stroke-miterlimit="10" stroke-dasharray="" stroke-dashoffset="0" style="mix-blend-mode: normal"><path d="M254.16195,203.7097v-47.41929h40.06747v47.41929z" fill="#5c6772" stroke-linecap="butt"/><path d="M185.77058,180c0,-24.67705 20.00474,-44.68167 44.68167,-44.68167c24.67705,0 44.68167,20.00474 44.68167,44.68167c0,24.67705 -20.00474,44.68167 -44.68167,44.68167c-24.67705,0 -44.68167,-20.00474 -44.68167,-44.68167z" fill="#5c6772" stroke-linecap="butt"/><path d="M208.0292,180c0,-12.38388 10.03917,-22.42305 22.42305,-22.42305c12.38388,0 22.42305,10.03917 22.42305,22.42305c0,12.38388 -10.03917,22.42305 -22.42305,22.42305c-12.38388,0 -22.42305,-10.03917 -22.42305,-22.42305z" fill="#5c6772" stroke-linecap="butt"/><path d="M217.19606,166.7438l26.5125,26.5125" fill="none" stroke-linecap="round"/><path d="M217.19606,193.2563l26.5125,-26.5125" fill="none" stroke-linecap="round"/></g></g></svg>